<svg width="100" height="100" xmlns="http://www.w3.org/2000/svg">
 <!-- Created with Method Draw - http://github.com/duopixel/Method-Draw/ -->
 <g>
  <title>background</title>
  <rect fill="none" id="canvas_background" height="102" width="102" y="-1" x="-1"/>
  <g display="none" overflow="visible" y="0" x="0" height="100%" width="100%" id="canvasGrid">
   <rect fill="url(#gridpattern)" stroke-width="0" y="0" x="0" height="100%" width="100%"/>
  </g>
 </g>
 <g>
  <title>Layer 1</title>
  <path stroke="#000" id="svg_1" d="m50.05523,37.32205c-6.88413,0 -12.46231,5.57845 -12.46231,12.46291c0,6.88126 5.57818,12.46291 12.46231,12.46291c1.57734,0 3.07167,-0.32571 4.46063,-0.86216l2.66935,4.10322l4.3393,-2.82595l-2.65339,-4.07448c2.25107,-2.25437 3.64641,-5.3677 3.64641,-8.80354c0,-6.88446 -5.57818,-12.46291 -12.4623,-12.46291zm32.43775,28.03276c-0.76951,1.60936 -1.63801,3.16123 -2.63742,4.63009l-10.08352,-2.16816c-1.53583,1.6796 -3.2856,3.174 -5.21737,4.42253l0.37997,10.2245c-1.61886,0.73443 -3.28241,1.34432 -5.00983,1.8201l-6.24233,-8.02761c-1.1878,0.16286 -2.39475,0.27462 -3.62725,0.27462c-1.13671,0 -2.25427,-0.09261 -3.35585,-0.2363l-6.2104,7.98291c-1.72742,-0.48217 -3.40055,-1.09207 -5.01302,-1.81691l0.37358,-10.04569c-2.02437,-1.27088 -3.85715,-2.80998 -5.46643,-4.55664l-9.8153,2.1011c-0.99941,-1.45608 -1.86152,-3.01434 -2.63742,-4.6237l6.66699,-7.373c-0.72161,-2.2448 -1.13032,-4.63328 -1.2293,-7.0984l-8.83825,-4.67479c0.17562,-1.79775 0.52685,-3.53483 0.9611,-5.24636l9.84723,-1.36348c0.92597,-2.2416 2.15528,-4.31716 3.62406,-6.20112l-3.77413,-9.26336c1.27401,-1.24214 2.6502,-2.37571 4.09663,-3.41668l8.50297,5.33896c2.07546,-1.07609 4.30737,-1.89354 6.65742,-2.39487l3.09083,-9.58268c0.88766,-0.06705 1.77212,-0.13411 2.67255,-0.13411c0.90043,0 1.78808,0.07025 2.67255,0.13411l3.11637,9.6689c2.29897,0.52048 4.4734,1.32835 6.50096,2.39487l8.63389,-5.4188c1.45282,1.04097 2.8322,2.17455 4.10302,3.41669l-3.8827,9.53477c1.36661,1.80095 2.53205,3.77113 3.41013,5.89139l10.16973,1.40818c0.43105,1.70834 0.78867,3.45181 0.96428,5.24636l-9.15435,4.84084c-0.10856,2.31823 -0.47895,4.56622 -1.13351,6.70563l6.88412,7.60611z" stroke-width="7" fill="none"/>
  <ellipse stroke="#000" ry="19.125" rx="19.125" id="svg_2" cy="50" cx="50" stroke-opacity="null" stroke-width="14" fill="none"/>
  <rect id="svg_7" height="4.375" width="4.375" y="19.68164" x="47.9375" fill-opacity="null" stroke-opacity="null" stroke-width="7" stroke="#000" fill="none"/>
  <rect id="svg_9" height="4.375" width="4.375" y="26.68164" x="66.3125" fill-opacity="null" stroke-opacity="null" stroke-width="7" stroke="#000" fill="none"/>
  <rect id="svg_10" height="4.375" width="4.375" y="42.55664" x="75.4375" fill-opacity="null" stroke-opacity="null" stroke-width="7" stroke="#000" fill="none"/>
  <rect id="svg_11" height="4.375" width="4.375" y="62.30664" x="71.9375" fill-opacity="null" stroke-opacity="null" stroke-width="7" stroke="#000" fill="none"/>
  <rect id="svg_12" height="4.375" width="4.375" y="73.80664" x="58.0625" fill-opacity="null" stroke-opacity="null" stroke-width="7" stroke="#000" fill="none"/>
  <rect id="svg_13" height="4.375" width="4.375" y="73.43164" x="38.4375" fill-opacity="null" stroke-opacity="null" stroke-width="7" stroke="#000" fill="none"/>
  <rect id="svg_14" height="4.375" width="4.375" y="62.18164" x="24.1875" fill-opacity="null" stroke-opacity="null" stroke-width="7" stroke="#000" fill="none"/>
  <rect id="svg_15" height="4.375" width="4.375" y="42.55664" x="20.6875" fill-opacity="null" stroke-opacity="null" stroke-width="7" stroke="#000" fill="none"/>
  <rect id="svg_16" height="4.375" width="4.375" y="26.55664" x="30.5625" fill-opacity="null" stroke-opacity="null" stroke-width="7" stroke="#000" fill="none"/>
 </g>
</svg>